HIERARCHY
ROOT ui
{
	 OFFSET 0 0 0
	 CHANNELS 3 XPosition YPosition Z Position
	 EndSite
	 {
	 OFFSET 0 -1 0
	 }
}
ROOT li
{
	 OFFSET 0 0 0
	 CHANNELS 3 XPosition YPosition Z Position
	 EndSite
	 {
	 OFFSET 0 -1 0
	 }
}
ROOT ul
{
	 OFFSET 0 0 0
	 CHANNELS 3 XPosition YPosition Z Position
	 EndSite
	 {
	 OFFSET 0 -1 0
	 }
}
ROOT ll
{
	 OFFSET 0 0 0
	 CHANNELS 3 XPosition YPosition Z Position
	 EndSite
	 {
	 OFFSET 0 -1 0
	 }
}
ROOT tt
{
	 OFFSET 0 0 0
	 CHANNELS 3 XPosition YPosition Z Position
	 EndSite
	 {
	 OFFSET 0 -1 0
	 }
}
ROOT tb
{
	 OFFSET 0 0 0
	 CHANNELS 3 XPosition YPosition Z Position
	 EndSite
	 {
	 OFFSET 0 -1 0
	 }
}
ROOT td
{
	 OFFSET 0 0 0
	 CHANNELS 3 XPosition YPosition Z Position
	 EndSite
	 {
	 OFFSET 0 -1 0
	 }
}
ROOT v
{
	 OFFSET 0 0 0
	 CHANNELS 3 XPosition YPosition Z Position
	 EndSite
	 {
	 OFFSET 0 -1 0
	 }
}
ROOT bn
{
	 OFFSET 0 0 0
	 CHANNELS 3 XPosition YPosition Z Position
	 EndSite
	 {
	 OFFSET 0 -1 0
	 }
}
MOTION
Frames: 21
Frame Time: 0.002
-0.007151413917541504	9.297630190849304E-4	0		0.623079833984375	-2.6712666015625	0		-1.128572509765625	-0.030562911987304688	0		-0.5706459350585937	-2.908965576171875	0		1.1617916259765626	-0.9071661376953125	0		3.038059814453125	-0.26605572509765624	0		4.66821923828125	-0.1712340087890625	0		5.7007001953125	0.1886034393310547	0		-0.24114065551757813	5.919908203125	0		
0.07744429016113281	0.005616999149322509	0		0.6937349243164063	-2.66940185546875	0		-1.0480087890625	-0.028869556427001952	0		-0.5679896240234374	-2.907385498046875	0		1.13936962890625	-0.9062484741210938	0		3.03181494140625	-0.24725265502929689	0		4.6628486328125	-0.16338534545898437	0		5.694689453125	0.19364649963378905	0		-0.22186671447753906	5.91431103515625	0		
-0.033125385284423825	4.866589903831482E-4	0		0.6423773803710937	-2.664165283203125	0		-1.057505859375	-0.028159423828125	0		-0.5694194946289063	-2.9097470703125	0		1.2078541259765625	-0.9103260498046875	0		3.042157958984375	-0.2616202087402344	0		4.66518896484375	-0.17760702514648438	0		5.69504296875	0.19335748291015625	0		-0.2566260986328125	5.9103271484375	0		
-0.005680540084838867	-1.6050499677658082E-4	0		0.6928259887695313	-2.67304248046875	0		-1.057058349609375	-0.028544212341308595	0		-0.5668487548828125	-2.908136962890625	0		1.163357421875	-0.9081341552734375	0		3.03276904296875	-0.24775135803222656	0		4.6697080078125	-0.1718353729248047	0		5.69536474609375	0.19309709167480468	0		-0.2554093627929688	5.9079599609375	0		
-0.03227656173706055	-1.9291499257087708E-4	0		0.6194683227539063	-2.65953369140625	0		-1.121662109375	-0.02919426155090332	0		-0.5524019775390625	-2.91364013671875	0		1.166823974609375	-0.9054568481445312	0		3.043025146484375	-0.26208560180664064	0		4.6701162109375	-0.1720037841796875	0		5.69565478515625	0.19286209106445312	0		-0.2731658630371094	5.9118193359375	0		
0.011059812545776367	-0.0029760549068450926	0		0.6588387451171875	-2.6672509765625	0		-1.1032354736328125	-0.02373967170715332	0		-0.5798213500976562	-2.90266162109375	0		1.153194091796875	-0.907573974609375	0		3.0605693359375	-0.24648167419433595	0		4.67844921875	-0.17524557495117188	0		5.69882373046875	0.20468319702148438	0		-0.2379493865966797	5.91611572265625	0		
-0.024513479232788085	0.006129548072814941	0		0.6513702392578125	-2.656431396484375	0		-1.0459779052734375	-0.030686939239501953	0		-0.5203849487304687	-2.90161474609375	0		1.2215118408203125	-0.9115703125	0		3.038805908203125	-0.25543153381347655	0		4.690955078125	-0.15951792907714843	0		5.69615185546875	0.1924591064453125	0		-0.23978916931152344	5.91784130859375	0		
0.07672435760498048	-2.3910999298095703E-4	0		0.6647686157226562	-2.654819580078125	0		-1.05163427734375	-0.02691783332824707	0		-0.5899197387695313	-2.89413134765625	0		1.170938720703125	-0.9022428588867187	0		3.03418896484375	-0.24855255126953124	0		4.687193359375	-0.16560015869140626	0		5.68634375	0.18390298461914062	0		-0.2547850341796875	5.9067333984375	0		
-0.031014049530029297	-0.001300963044166565	0		0.6391514282226562	-2.651759033203125	0		-1.0513565673828125	-0.027186817169189453	0		-0.48769058227539064	-2.906498291015625	0		1.2131722412109376	-0.9089090576171875	0		3.060318603515625	-0.2629936828613281	0		4.68138818359375	-0.17364842224121094	0		5.6823271484375	0.19770048522949218	0		-0.2556456298828125	5.9084970703125	0		
-0.0037585999965667723	-0.00181003201007843	0		0.649373291015625	-2.66106689453125	0		-1.1201383056640626	-0.03067643928527832	0		-0.5763154907226562	-2.901757568359375	0		1.177442138671875	-0.90970361328125	0		3.044800048828125	-0.24296279907226562	0		4.6747255859375	-0.16667594909667968	0		5.68671435546875	0.18014779663085936	0		-0.273495849609375	5.9114716796875	0		
0.003554434061050415	0.004925708770751953	0		0.6547294921875	-2.655296142578125	0		-1.040872314453125	-0.028744306564331055	0		-0.5339674072265626	-2.8974130859375	0		1.1807413330078125	-0.9059003295898438	0		3.063878662109375	-0.2582941284179687	0		4.685955078125	-0.16788821411132812	0		5.67845947265625	0.20965296936035155	0		-0.2733782958984375	5.91127783203125	0		
0.003773468017578125	0.004766077041625977	0		0.6450904541015625	-2.646337158203125	0		-1.1256260986328126	-0.026000421524047853	0		-0.5666552734375	-2.893224365234375	0		1.1840076904296875	-0.9030732421875	0		3.077220458984375	-0.2475447998046875	0		4.69717626953125	-0.16808985900878906	0		5.68996630859375	0.19539698791503907	0		-0.2543118896484375	5.905908203125	0		
0.003975477933883667	0.004634980201721191	0		0.670270263671875	-2.65173046875	0		-1.05043896484375	-0.027957242965698244	0		-0.5433532104492188	-2.88761181640625	0		1.2231214599609375	-0.9126109619140625	0		3.083349609375	-0.25470172119140627	0		4.69738037109375	-0.16816188049316405	0		5.6914072265625	0.1658464813232422	0		-0.26829153442382814	5.89592626953125	0		
-0.0029142351150512696	-0.002392054080963135	0		0.6325894775390625	-2.64141748046875	0		-1.1252379150390626	-0.02625875473022461	0		-0.57710791015625	-2.884352294921875	0		1.2233150634765626	-0.912703369140625	0		3.059560302734375	-0.2525185089111328	0		4.6975673828125	-0.16822390747070312	0		5.68733837890625	0.18316415405273437	0		-0.28909146118164064	5.90204736328125	0		
-0.0027449491024017334	-0.0024684379100799562	0		0.6535982666015625	-2.657716552734375	0		-1.0500836181640625	-0.02815140914916992	0		-0.562978515625	-2.88958251953125	0		1.181556396484375	-0.9063198852539063	0		3.073643798828125	-0.2607298889160156	0		4.6847275390625	-0.1691354217529297	0		5.68452978515625	0.1658579864501953	0		-0.2718672790527344	5.90978515625	0		
0.004483431816101074	0.004404696941375732	0		0.6239531860351563	-2.63944287109375	0		-1.1068514404296874	-0.02058894729614258	0		-0.5537118530273437	-2.879732421875	0		1.1996455078125	-0.9125623779296875	0		3.08996923828125	-0.24494808959960937	0		4.7009560546875	-0.16234974670410157	0		5.68042138671875	0.1797416229248047	0		-0.2566192932128906	5.9195712890625	0		
0.007652884006500244	0.007345518112182617	0		0.6661303100585938	-2.635923828125	0		-1.045750244140625	-0.024274105072021483	0		-0.564488525390625	-2.871640380859375	0		1.186923583984375	-0.8994496459960938	0		3.072053466796875	-0.2497809295654297	0		4.7010927734375	-0.16237791442871094	0		5.68053466796875	0.1831521759033203	0		-0.20445071411132812	5.921982421875	0		
-0.002333782911300659	-0.002550163984298706	0		0.6382471313476562	-2.635626953125	0		-1.0496724853515624	-0.028232744216918945	0		-0.5534608764648438	-2.879761962890625	0		1.22694287109375	-0.9088882446289063	0		3.084118896484375	-0.2549211730957031	0		4.69814892578125	-0.16835943603515624	0		5.67058203125	0.17127664184570313	0		-0.23838018798828126	5.9163466796875	0		
-0.00223062801361084	-0.002534908056259155	0		0.6632855834960938	-2.6408837890625	0		-1.0495694580078125	-0.02821384048461914	0		-0.5642806396484376	-2.87162646484375	0		1.22704296875	-0.9088773193359375	0		3.072276123046875	-0.2497872314453125	0		4.69825146484375	-0.16836056518554687	0		5.677787109375	0.1710823516845703	0		-0.2382564239501953	5.91636279296875	0		
-0.002146514892578125	-0.0025028650760650635	0		0.612447021484375	-2.6323037109375	0		-1.12447021484375	-0.026365856170654296	0		-0.5512754516601562	-2.87773193359375	0		1.2240797119140625	-0.9128182373046875	0		3.07838037109375	-0.24783441162109374	0		4.703248046875	-0.17640385437011719	0		5.66721044921875	0.18521290588378905	0		-0.2570897521972656	5.92160107421875	0		
-0.0020824360847473146	-0.002456341028213501	0		0.6503966674804688	-2.64167138671875	0		-1.03730322265625	-0.017255020141601563	0		-0.58112841796875	-2.868358154296875	0		1.1942054443359376	-0.906454345703125	0		3.0754755859375	-0.2447729797363281	0		4.70146240234375	-0.16236305236816406	0		5.6736669921875	0.1833406219482422	0		-0.25699224853515623	5.92164892578125	0		
